{
  "accessors": [
    {
      "bufferView": 2,
      "componentType": 5126,
      "count": 1658,
      "max": [
        1.3748537302017212,
        1.3748537302017212,
        2.1137688159942627
      ],
      "min": [
        -1.3748537302017212,
        -1.3748537302017212,
        -1.3596961498260498
      ],
      "type": "VEC3"
    },
    {
      "bufferView": 2,
      "byteOffset": 19896,
      "componentType": 5126,
      "count": 1658,
      "max": [
        0.9997063875198364,
        0.9997063875198364,
        1.0
      ],
      "min": [
        -0.9997063875198364,
        -0.9997063875198364,
        -1.0
      ],
      "type": "VEC3"
    },
    {
      "bufferView": 1,
      "componentType": 5126,
      "count": 1658,
      "max": [
        0.5918633937835693,
        0.9949859380722046
      ],
      "min": [
        0.0050139962695539,
        0.0050139962695539
      ],
      "type": "VEC2"
    },
    {
      "bufferView": 0,
      "componentType": 5125,
      "count": 9216,
      "type": "SCALAR"
    },
    {
      "bufferView": 2,
      "byteOffset": 39792,
      "componentType": 5126,
      "count": 2408,
      "max": [
        1.7029842138290405,
        0.3364943265914917,
        1.946226716041565
      ],
      "min": [
        -1.7029842138290405,
        -0.8139830827713013,
        0.0027043786831200123
      ],
      "type": "VEC3"
    },
    {
      "bufferView": 2,
      "byteOffset": 68688,
      "componentType": 5126,
      "count": 2408,
      "max": [
        0.9982725977897644,
        0.9943590760231018,
        0.999993085861206
      ],
      "min": [
        -0.9982725977897644,
        -0.9944199919700623,
        -1.0
      ],
      "type": "VEC3"
    },
    {
      "bufferView": 1,
      "byteOffset": 13264,
      "componentType": 5126,
      "count": 2408,
      "max": [
        0.9944051504135132,
        0.33296462893486023
      ],
      "min": [
        0.765185534954071,
        0.003725530579686165
      ],
      "type": "VEC2"
    },
    {
      "bufferView": 0,
      "byteOffset": 36864,
      "componentType": 5125,
      "count": 13440,
      "type": "SCALAR"
    },
    {
      "bufferView": 2,
      "byteOffset": 97584,
      "componentType": 5126,
      "count": 216,
      "max": [
        0.23180775344371796,
        0.1722738891839981,
        0.15030597150325775
      ],
      "min": [
        -0.23180775344371796,
        -0.12577316164970398,
        -0.16297516226768494
      ],
      "type": "VEC3"
    },
    {
      "bufferView": 2,
      "byteOffset": 100176,
      "componentType": 5126,
      "count": 216,
      "max": [
        0.8833181858062744,
        -0.3422755002975464,
        0.9392663240432739
      ],
      "min": [
        -0.8833181858062744,
        -0.990705668926239,
        -0.9073383808135986
      ],
      "type": "VEC3"
    },
    {
      "bufferView": 1,
      "byteOffset": 32528,
      "componentType": 5126,
      "count": 216,
      "max": [
        0.10007341206073761,
        0.5650970935821533
      ],
      "min": [
        0.006330434232950211,
        0.40643244981765747
      ],
      "type": "VEC2"
    },
    {
      "bufferView": 0,
      "byteOffset": 90624,
      "componentType": 5125,
      "count": 1092,
      "type": "SCALAR"
    },
    {
      "bufferView": 2,
      "byteOffset": 102768,
      "componentType": 5126,
      "count": 642,
      "max": [
        0.6611249446868896,
        -1.0707361698150635,
        2.3862764835357666
      ],
      "min": [
        -0.6611249446868896,
        -1.2604384422302246,
        2.095421552658081
      ],
      "type": "VEC3"
    },
    {
      "bufferView": 2,
      "byteOffset": 110472,
      "componentType": 5126,
      "count": 642,
      "max": [
        0.9997572898864746,
        0.23652058839797974,
        0.9974943399429321
      ],
      "min": [
        -0.9997572898864746,
        -0.9997572898864746,
        -0.9974943399429321
      ],
      "type": "VEC3"
    },
    {
      "bufferView": 1,
      "byteOffset": 34256,
      "componentType": 5126,
      "count": 642,
      "max": [
        0.15802451968193054,
        0.5336781144142151
      ],
      "min": [
        0.07894336432218552,
        0.45459702610969543
      ],
      "type": "VEC2"
    },
    {
      "bufferView": 0,
      "byteOffset": 94992,
      "componentType": 5125,
      "count": 3600,
      "type": "SCALAR"
    },
    {
      "bufferView": 2,
      "byteOffset": 118176,
      "componentType": 5126,
      "count": 1487,
      "max": [
        0.7059398889541626,
        0.7059398889541626,
        2.5604453086853027
      ],
      "min": [
        -0.7059398889541626,
        -0.7059398889541626,
        1.8401540517807007
      ],
      "type": "VEC3"
    },
    {
      "bufferView": 2,
      "byteOffset": 136020,
      "componentType": 5126,
      "count": 1487,
      "max": [
        1.0,
        1.0,
        1.0
      ],
      "min": [
        -1.0,
        -1.0,
        -1.0
      ],
      "type": "VEC3"
    },
    {
      "bufferView": 1,
      "byteOffset": 39392,
      "componentType": 5126,
      "count": 1487,
      "max": [
        0.9959126114845276,
        0.9957857728004456
      ],
      "min": [
        0.008282027207314968,
        0.0037522960919886827
      ],
      "type": "VEC2"
    },
    {
      "bufferView": 0,
      "byteOffset": 109392,
      "componentType": 5125,
      "count": 7824,
      "type": "SCALAR"
    }
  ],
  "asset": {
    "extras": {
      "author": "patrakeevasveta (https://sketchfab.com/patrakeevasveta)",
      "license": "CC-BY-4.0 (http://creativecommons.org/licenses/by/4.0/)",
      "source": "https://sketchfab.com/3d-models/penguin-5d5ddab9a9bf4933a7615bb2d5ed0f9d",
      "title": "Penguin"
    },
    "generator": "Sketchfab-14.64.0",
    "version": "2.0"
  },
  "bufferViews": [
    {
      "buffer": 0,
      "byteLength": 140688,
      "name": "floatBufferViews",
      "target": 34963
    },
    {
      "buffer": 0,
      "byteLength": 51288,
      "byteOffset": 140688,
      "byteStride": 8,
      "name": "floatBufferViews",
      "target": 34962
    },
    {
      "buffer": 0,
      "byteLength": 153864,
      "byteOffset": 191976,
      "byteStride": 12,
      "name": "floatBufferViews",
      "target": 34962
    }
  ],
  "buffers": [
    {
      "byteLength": 345840,
      "uri": "scene.bin"
    }
  ],
  "images": [
    {
      "uri": "textures/Material_baseColor.png"
    },
    {
      "uri": "textures/Material_metallicRoughness.png"
    }
  ],
  "materials": [
    {
      "doubleSided": true,
      "name": "Material",
      "pbrMetallicRoughness": {
        "baseColorTexture": {
          "index": 0
        },
        "metallicFactor": 0.0,
        "metallicRoughnessTexture": {
          "index": 1
        }
      }
    }
  ],
  "meshes": [
    {
      "name": "Roundcube_Material_0",
      "primitives": [
        {
          "attributes": {
            "NORMAL": 1,
            "POSITION": 0,
            "TEXCOORD_0": 2
          },
          "indices": 3,
          "material": 0,
          "mode": 4
        }
      ]
    },
    {
      "name": "Roundcube.001_Material_0",
      "primitives": [
        {
          "attributes": {
            "NORMAL": 5,
            "POSITION": 4,
            "TEXCOORD_0": 6
          },
          "indices": 7,
          "material": 0,
          "mode": 4
        }
      ]
    },
    {
      "name": "Cube_Material_0",
      "primitives": [
        {
          "attributes": {
            "NORMAL": 9,
            "POSITION": 8,
            "TEXCOORD_0": 10
          },
          "indices": 11,
          "material": 0,
          "mode": 4
        }
      ]
    },
    {
      "name": "Roundcube.002_Material_0",
      "primitives": [
        {
          "attributes": {
            "NORMAL": 13,
            "POSITION": 12,
            "TEXCOORD_0": 14
          },
          "indices": 15,
          "material": 0,
          "mode": 4
        }
      ]
    },
    {
      "name": "Roundcube.003_Material_0",
      "primitives": [
        {
          "attributes": {
            "NORMAL": 17,
            "POSITION": 16,
            "TEXCOORD_0": 18
          },
          "indices": 19,
          "material": 0,
          "mode": 4
        }
      ]
    }
  ],
  "nodes": [
    {
      "children": [
        1
      ],
      "matrix": [
        0.24351175129413605,
        0.0,
        0.0,
        0.0,
        0.0,
        5.407047061070892e-17,
        -0.24351175129413605,
        0.0,
        0.0,
        0.24351175129413605,
        5.407047061070892e-17,
        0.0,
        0.0,
        0.0,
        0.0,
        1.0
      ],
      "name": "Sketchfab_model"
    },
    {
      "children": [
        2
      ],
      "matrix": [
        0.009999999776482582,
        0.0,
        0.0,
        0.0,
        0.0,
        0.0,
        0.009999999776482582,
        0.0,
        0.0,
        -0.009999999776482582,
        0.0,
        0.0,
        0.0,
        0.0,
        0.0,
        1.0
      ],
      "name": "penguin.fbx"
    },
    {
      "children": [
        3,
        5,
        7,
        9,
        11
      ],
      "name": "RootNode"
    },
    {
      "children": [
        4
      ],
      "matrix": [
        100.0,
        0.0,
        0.0,
        0.0,
        0.0,
        -1.629206793918314e-05,
        -99.99999999999868,
        0.0,
        0.0,
        99.99999999999868,
        -1.629206793918314e-05,
        0.0,
        0.0,
        136.2260284423828,
        0.0,
        1.0
      ],
      "name": "Roundcube"
    },
    {
      "mesh": 0,
      "name": "Roundcube_Material_0"
    },
    {
      "children": [
        6
      ],
      "matrix": [
        100.0,
        0.0,
        0.0,
        0.0,
        -0.0,
        -1.629206793918314e-05,
        -99.99999999999868,
        0.0,
        0.0,
        99.99999999999868,
        -1.629206793918314e-05,
        0.0,
        -5.9604644775390625e-06,
        0.0,
        1.1920928955078125e-05,
        1.0
      ],
      "name": "Roundcube.001"
    },
    {
      "mesh": 1,
      "name": "Roundcube.001_Material_0"
    },
    {
      "children": [
        8
      ],
      "matrix": [
        100.0,
        0.0,
        0.0,
        0.0,
        0.0,
        -1.629206793918314e-05,
        -99.99999999999868,
        0.0,
        0.0,
        99.99999999999868,
        -1.629206793918314e-05,
        0.0,
        0.0,
        210.14651489257813,
        142.8461456298828,
        1.0
      ],
      "name": "Cube"
    },
    {
      "mesh": 2,
      "name": "Cube_Material_0"
    },
    {
      "children": [
        10
      ],
      "matrix": [
        100.0,
        0.0,
        0.0,
        0.0,
        0.0,
        -1.629206793918314e-05,
        -99.99999999999868,
        0.0,
        0.0,
        99.99999999999868,
        -1.629206793918314e-05,
        0.0,
        0.0,
        0.0,
        0.0,
        1.0
      ],
      "name": "Roundcube.002"
    },
    {
      "mesh": 3,
      "name": "Roundcube.002_Material_0"
    },
    {
      "children": [
        12
      ],
      "matrix": [
        100.0,
        0.0,
        0.0,
        0.0,
        0.0,
        -1.629206793918314e-05,
        -99.99999999999868,
        0.0,
        0.0,
        99.99999999999868,
        -1.629206793918314e-05,
        0.0,
        0.0,
        136.2260284423828,
        0.0,
        1.0
      ],
      "name": "Roundcube.003"
    },
    {
      "mesh": 4,
      "name": "Roundcube.003_Material_0"
    }
  ],
  "samplers": [
    {
      "magFilter": 9729,
      "minFilter": 9987,
      "wrapS": 10497,
      "wrapT": 10497
    }
  ],
  "scene": 0,
  "scenes": [
    {
      "name": "Sketchfab_Scene",
      "nodes": [
        0
      ]
    }
  ],
  "textures": [
    {
      "sampler": 0,
      "source": 0
    },
    {
      "sampler": 0,
      "source": 1
    }
  ]
}
